<?xml version="1.0" standalone="no"?>
<!DOCTYPE svg PUBLIC "-//W3C//DTD SVG 1.1//EN" "http://www.w3.org/Graphics/SVG/1.1/DTD/svg11.dtd" >
<svg xmlns="http://www.w3.org/2000/svg">
<metadata>
Created by FontForge 20120731 at Tue May  2 15:35:38 2017
 By admin
</metadata>
<defs>
<font id="iconfont" horiz-adv-x="1024" >
  <font-face 
    font-family="iconfont"
    font-weight="500"
    font-stretch="normal"
    units-per-em="1024"
    panose-1="2 0 6 3 0 0 0 0 0 0"
    ascent="896"
    descent="-128"
    x-height="792"
    bbox="0 -224 1024 896"
    underline-thickness="0"
    underline-position="0"
    unicode-range="U+0078-E78A"
  />
<missing-glyph 
 />
    <glyph glyph-name=".notdef" 
 />
    <glyph glyph-name=".notdef" 
 />
    <glyph glyph-name=".null" horiz-adv-x="0" 
 />
    <glyph glyph-name="nonmarkingreturn" horiz-adv-x="341" 
 />
    <glyph glyph-name="x" unicode="x" horiz-adv-x="1001" 
d="M281 543q-27 -1 -53 -1h-83q-18 0 -36.5 -6t-32.5 -18.5t-23 -32t-9 -45.5v-76h912v41q0 16 -0.5 30t-0.5 18q0 13 -5 29t-17 29.5t-31.5 22.5t-49.5 9h-133v-97h-438v97zM955 310v-52q0 -23 0.5 -52t0.5 -58t-10.5 -47.5t-26 -30t-33 -16t-31.5 -4.5q-14 -1 -29.5 -0.5
t-29.5 0.5h-32l-45 128h-439l-44 -128h-29h-34q-20 0 -45 1q-25 0 -41 9.5t-25.5 23t-13.5 29.5t-4 30v167h911zM163 247q-12 0 -21 -8.5t-9 -21.5t9 -21.5t21 -8.5q13 0 22 8.5t9 21.5t-9 21.5t-22 8.5zM316 123q-8 -26 -14 -48q-5 -19 -10.5 -37t-7.5 -25t-3 -15t1 -14.5
t9.5 -10.5t21.5 -4h37h67h81h80h64h36q23 0 34 12t2 38q-5 13 -9.5 30.5t-9.5 34.5q-5 19 -11 39h-368zM336 498v228q0 11 2.5 23t10 21.5t20.5 15.5t34 6h188q31 0 51.5 -14.5t20.5 -52.5v-227h-327z" />
    <glyph glyph-name="jiantouxia" unicode="&#xe6a1;" 
d="M964 497l-60 59l-392 -392l-392 392l-60 -59l452 -453z" />
    <glyph glyph-name="search" unicode="&#xe604;" 
d="M764 452q0 -118 -77 -208l204 -204q18 -18 6 -35q-13 -19 -35 -2q-5 3 -9 7q-21 22 -201 199v0q-90 -78 -209 -78q-87 0 -160.5 43t-116.5 117t-43 161t43 160.5t116.5 116.5t160.5 43t161 -43t117 -116.5t43 -160.5zM443.5 721q-111.5 0 -190.5 -79t-79 -190.5
t79 -190.5t190.5 -79t190.5 79t79 190.5t-79 190.5t-190.5 79z" />
    <glyph glyph-name="setting" unicode="&#xe6bd;" 
d="M955 458h-44q-15 0 -29.5 10.5t-18.5 24.5l-26 62q-7 13 -4.5 30.5t13.5 28.5l32 31q10 11 10 26.5t-10 25.5l-53 52q-11 11 -26 11t-26 -11l-31 -31q-11 -11 -28.5 -13.5t-30.5 4.5l-62 26q-14 4 -24.5 18.5t-10.5 29.5v44q0 15 -11 26t-26 11h-74q-15 0 -26 -11
t-11 -26v-44q0 -16 -10.5 -30t-24.5 -18l-62 -26q-13 -7 -30.5 -4.5t-28.5 13.5l-31 32q-11 10 -26 10t-26 -10l-52 -53q-11 -10 -11 -25.5t11 -26.5l31 -31q11 -11 13.5 -28.5t-4.5 -30.5l-26 -62q-4 -14 -18.5 -24.5t-29.5 -10.5h-44q-15 0 -26 -11t-11 -26v-74
q0 -15 11 -26t26 -11h44q16 0 30 -10.5t18 -24.5l26 -62q7 -13 4.5 -30.5t-13.5 -28.5l-32 -31q-10 -11 -10 -26.5t10 -25.5l53 -53q11 -10 26 -10t26 10l31 32q11 11 28.5 13.5t30.5 -5.5l62 -25q14 -4 24.5 -18.5t10.5 -29.5v-44q0 -15 11 -26t26 -11h74q15 0 26 11t11 26
v44q0 15 10.5 29.5t24.5 18.5l62 25q13 8 30.5 5.5t28.5 -13.5l31 -32q11 -10 26 -10t26 10l53 53q10 11 10 26t-10 26l-32 31q-11 11 -13.5 28.5t4.5 30.5l26 62q4 14 18 24.5t30 10.5h44q15 0 26 11t11 26v74q0 15 -11 26t-26 11zM697 384.5q0 -76.5 -54 -131
t-130.5 -54.5t-131 54.5t-54.5 131t54.5 130.5t131 54t130.5 -54t54 -130.5z" />
    <glyph glyph-name="close" unicode="&#xe609;" 
d="M898 728q9 8 9 20t-9 20l-1 1q-8 8 -19.5 8t-20.5 -8l-324 -325q-9 -8 -20.5 -8t-19.5 8l-325 325q-9 8 -20.5 8t-19.5 -8l-1 -1q-9 -8 -9 -20t9 -20l325 -325q8 -8 8 -19.5t-8 -19.5l-325 -325q-9 -9 -9 -20.5t9 -19.5l1 -1q8 -9 19.5 -9t20.5 9l325 324q8 9 19.5 9
t20.5 -9l324 -324q9 -9 20.5 -9t19.5 9l1 1q9 8 9 19.5t-9 20.5l-324 325q-9 8 -9 19.5t9 19.5z" />
    <glyph glyph-name="tree_close" unicode="&#xe632;" 
d="M62 834v-900h900v900h-900zM907 -5h-786v782h786v-782zM456 159h112v169h170v112h-170v169h-112v-169h-170v-112h170v-169z" />
    <glyph glyph-name="tip" unicode="&#xe78a;" 
d="M512 800q-139 0 -257 -68.5t-186.5 -186.5t-68.5 -257t68.5 -257t186.5 -186.5t257 -68.5t257 68.5t186.5 186.5t68.5 257t-68.5 257t-186.5 186.5t-257 68.5zM461 582q0 22 15 37t36 15t36 -15t15 -37v-409q0 -21 -15 -36t-36 -15t-36 15t-15 36v409zM512 -74
q-27 0 -45.5 19t-18.5 45.5t18.5 45t45.5 18.5t45.5 -18.5t18.5 -45t-18.5 -45.5t-45.5 -19z" />
    <glyph glyph-name="edit" unicode="&#xe60a;" 
d="M805 534l-144 144l72 71q18 18 43 18t43 -18l57 -57q18 -18 18 -43t-18 -43zM388 118l-143 144l390 386l143 -143zM130 1l87 233l142 -142z" />
    <glyph glyph-name="pwd" unicode="&#xe674;" 
d="M880 -128h-736q-23 0 -43.5 20t-20.5 44v544q0 19 20.5 41.5t43.5 22.5h64v96q0 110 83.5 182.5t204.5 73.5q120 -1 204 -73t84 -183v-64h-64v64q0 91 -62 141t-162 51q-102 -1 -163 -51.5t-61 -140.5v-96h512h96q26 0 45 -18.5t19 -45.5v-544q0 -23 -21 -43.5t-43 -20.5
zM880 480h-736v-544h736v544zM528 416q66 0 113 -47t47 -113q0 -58 -36.5 -102t-91.5 -55v-99q0 -13 -9.5 -22.5t-22.5 -9.5t-22.5 9.5t-9.5 22.5v99q-55 11 -91.5 55t-36.5 102q0 66 47 113t113 47zM528 160q40 0 68 28t28 68t-28 68t-68 28t-68 -28t-28 -68t28 -68t68 -28
z" />
    <glyph glyph-name="bianji" unicode="&#xe69b;" 
d="M769 742l-14 14l-397 -396l132 -132l368 367l7 -7l31 31l-124 125zM975 712l-132 132l-44 -44l132 -132zM314 315l-44 -176l176 44zM877 323v-243q0 -25 -18 -43t-43 -18h-608q-25 0 -43 18t-18 43v608q0 25 18 43t43 18h365v122h-365q-76 0 -129.5 -53.5t-53.5 -129.5
v-608q0 -76 53.5 -129.5t129.5 -53.5h608q76 0 129.5 53.5t53.5 129.5v243h-122z" />
    <glyph glyph-name="add_md" unicode="&#xe720;" 
d="M1006 439h-439v439h-110v-439h-439v-110h439v-439h110v439h439v110z" />
    <glyph glyph-name="img" unicode="&#xe606;" 
d="M136 689v-612h752v612h-752zM840 125h-656v518h658v-518h-2zM652 524q0 -29 21 -50t50.5 -21t50.5 21t21 50.5t-21 50.5t-50.5 21t-50.5 -21t-21 -51v0zM795 172h-566l141 376l187 -235l93 71zM795 172z" />
    <glyph glyph-name="menu_arrow" unicode="&#xe6c3;" 
d="M800 384l-416 -416l-64 64l352 352l-352 352l64 64z" />
    <glyph glyph-name="delete" unicode="&#xe60d;" 
d="M697 83h-69v486h-70v-486h-92v486h-70v-486h-69v486h370v-486zM442 685h140v-46h-140v46zM779 639h-128v69q0 20 -13.5 33.5t-32.5 13.5h-186q-19 0 -32.5 -13.5t-13.5 -33.5v-69h-128q-14 0 -24 -10t-10 -24.5t10 -25t24 -10.5h12v-509q0 -20 13.5 -33.5t32.5 -13.5h418
q19 0 32.5 13.5t13.5 33.5v509h12q14 0 24 10.5t10 25t-10 24.5t-24 10z" />
    <glyph glyph-name="tree_open" unicode="&#xe719;" 
d="M62 834v-900h900v900h-900zM907 -5h-786v782h786v-782zM287 440h450v-112h-450v112z" />
    <glyph glyph-name="download" unicode="&#xe6c6;" 
d="M935 -39h-899v317h53v-264h846v264h53v-317h-53v0zM512 173v0l-26 15l-230 230l37 38l193 -193v544h52v-544l193 193l37 -38l-230 -230z" />
    <glyph glyph-name="finish" unicode="&#xe626;" 
d="M907 691q-19 0 -33 -14v0l-491 -491l-230 231q-14 15 -35 15q-19 0 -32 -13.5t-13 -32.5q0 -20 15 -34v0l262 -263v0q14 -14 33 -14t33 14l522 523q14 14 14 33t-13 32.5t-32 13.5z" />
    <glyph glyph-name="add_lg" unicode="&#xe610;" 
d="M998 468h-403v403h-160v-403h-407v-160h407v-407h160v407h403v160z" />
    <glyph glyph-name="go_right" unicode="&#xe607;" 
d="M314 780l396 -396l-396 -396v792z" />
    <glyph glyph-name="calendar" unicode="&#xe6d9;" 
d="M640 666h96q7 0 11.5 4.5t4.5 11.5v160q0 7 -4.5 11.5t-11.5 4.5h-96q-6 0 -11 -4.5t-5 -11.5v-160q0 -7 5 -11.5t11 -4.5zM464 314h96q7 0 11.5 4.5t4.5 11.5v96q0 7 -4.5 11.5t-11.5 4.5h-96q-6 0 -11 -4.5t-5 -11.5v-96q0 -7 5 -11.5t11 -4.5zM288 666h96
q7 0 11.5 4.5t4.5 11.5v160q0 7 -4.5 11.5t-11.5 4.5h-96q-6 0 -11 -4.5t-5 -11.5v-160q0 -7 5 -11.5t11 -4.5zM656 314h96q7 0 11.5 4.5t4.5 11.5v96q0 7 -4.5 11.5t-11.5 4.5h-96q-6 0 -11 -4.5t-5 -11.5v-96q0 -7 5 -11.5t11 -4.5zM272 122h96q7 0 11.5 4.5t4.5 11.5v96
q0 7 -4.5 11.5t-11.5 4.5h-96q-6 0 -11 -4.5t-5 -11.5v-96q0 -7 5 -11.5t11 -4.5zM464 122h96q7 0 11.5 4.5t4.5 11.5v96q0 7 -4.5 11.5t-11.5 4.5h-96q-6 0 -11 -4.5t-5 -11.5v-96q0 -7 5 -11.5t11 -4.5zM928 762h-144v-112q0 -7 -4.5 -11.5t-11.5 -4.5h-160q-6 0 -11 4.5
t-5 11.5v112h-160v-112q0 -7 -4.5 -11.5t-11.5 -4.5h-160q-6 0 -11 4.5t-5 11.5v112h-144q-6 0 -11 -4.5t-5 -11.5v-800q0 -7 5 -11.5t11 -4.5h832q7 0 11.5 4.5t4.5 11.5v800q0 7 -4.5 11.5t-11.5 4.5zM880 -6h-735v576h735v-576zM272 314h96q7 0 11.5 4.5t4.5 11.5v96
q0 7 -4.5 11.5t-11.5 4.5h-96q-6 0 -11 -4.5t-5 -11.5v-96q0 -7 5 -11.5t11 -4.5zM656 122h96q7 0 11.5 4.5t4.5 11.5v96q0 7 -4.5 11.5t-11.5 4.5h-96q-6 0 -11 -4.5t-5 -11.5v-96q0 -7 5 -11.5t11 -4.5z" />
    <glyph glyph-name="go_left" unicode="&#xe608;" 
d="M315 384l394 395v-790l-394 395v0z" />
    <glyph glyph-name="user" unicode="&#xe605;" 
d="M671 359q60 39 96 103.5t36 139.5q1 120 -84.5 205.5t-206 86t-206 -84.5t-85.5 -206q0 -75 35.5 -140t97.5 -104q-155 -51 -253.5 -184t-98.5 -301h73q0 89 34.5 170t93 139.5t139.5 93t170 34.5t170 -34.5t139.5 -93t93 -139.5t34.5 -170h73q0 168 -98.5 301
t-252.5 184zM293.5 602.5q0.5 90.5 64.5 154.5t154.5 64t154.5 -64.5t63.5 -154.5t-64.5 -154t-154.5 -64t-154.5 64t-63.5 154.5z" />
    <glyph glyph-name="address" unicode="&#xe633;" 
d="M512 64q4 0 32.5 40.5t67.5 105.5t77.5 135.5t65 141t26.5 112.5q0 111 -79 190t-190 79t-190 -79t-79 -190q0 -42 26.5 -112.5t65 -141t77.5 -135.5t67.5 -105.5t32.5 -40.5zM385 598.5q0 52.5 37 90t90 37.5t90 -37.5t37 -90t-37 -90t-90 -37.5t-90 37.5t-37 90z
M706 174v0q45 -15 70.5 -36t25.5 -44q0 -45 -85 -76.5t-205 -31.5t-205 31.5t-85 76.5q0 23 25.5 44t70.5 36q-91 -21 -145.5 -56.5t-54.5 -77.5t53 -77.5t143.5 -56t197.5 -20.5t197.5 20.5t143.5 56t53 77.5t-54.5 77.5t-145.5 56.5z" />
    <glyph glyph-name="refresh" unicode="&#xe60f;" 
d="M906 269q-1 1 -1 3l-3 3q-3 5 -8 7v2t1 1h-259q-11 0 -18 -7.5t-7 -17.5t7 -17t18 -7h188q-42 -90 -126 -144t-186 -54q-130 0 -227 85t-115 211h-50q18 -147 130 -246.5t262 -99.5q110 0 202.5 56t143.5 149v-180q0 -10 7.5 -17.5t17.5 -7.5t17.5 7.5t7.5 17.5v247
q0 4 -2 9v0zM130 486v-2t-1 -1h259q11 0 18 7t7 17.5t-7.5 17.5t-17.5 7h-189q43 89 127 143.5t186 54.5q130 0 227 -85t115 -212h50q-18 148 -130 247.5t-262 99.5q-110 0 -202.5 -56t-143.5 -149v180q0 10 -7.5 17.5t-17.5 7.5t-17.5 -7.5t-7.5 -17.5v-247q0 -4 2 -9
q1 -1 1 -3q2 -2 3 -4q4 -4 8 -6v0z" />
    <glyph glyph-name="menu" unicode="&#xe611;" 
d="M474 490q0 -33 -23.5 -56.5t-57.5 -23.5h-285q-33 0 -56.5 23.5t-23.5 56.5v297q0 33 23.5 57t56.5 24h285q34 0 57.5 -24t23.5 -57v-297zM474 -19q0 -33 -23.5 -57t-57.5 -24h-285q-33 0 -56.5 24t-23.5 57v297q0 33 23.5 56.5t56.5 23.5h285q34 0 57.5 -23.5
t23.5 -56.5v-297zM995 490q0 -33 -23.5 -56.5t-56.5 -23.5h-285q-34 0 -57.5 23.5t-23.5 56.5v297q0 33 23.5 57t57.5 24h285q33 0 56.5 -24t23.5 -57v-297zM995 -19q0 -33 -23.5 -57t-56.5 -24h-285q-34 0 -57.5 24t-23.5 57v297q0 33 23.5 56.5t57.5 23.5h285
q33 0 56.5 -23.5t23.5 -56.5v-297z" />
    <glyph glyph-name="message" unicode="&#xe68a;" 
d="M960 669l-447 -323l-449 314v60h896v-51zM960 584v-536h-896v528l446 -309z" />
  </font>
</defs>
</svg>
